<?xml version="1.0" encoding="UTF-8" standalone="no"?>
<svg
   version="1.1"
   width="1024"
   height="1024"
   id="svg35"
   xmlns="http://www.w3.org/2000/svg"
   xmlns:svg="http://www.w3.org/2000/svg">
  <defs
     id="defs35" />
  <path
     d="m 731,232 c 0.52529,0.42088 1.05059,0.84176 1.5918,1.27539 8.57643,6.90143 16.42269,14.53193 24.2207,22.28711 0.73221,0.72431 0.73221,0.72431 1.47922,1.46326 5.91664,5.86721 11.45649,11.91497 16.65896,18.43054 1.84136,2.28557 3.73879,4.48835 5.69385,6.67651 3.59505,4.0717 6.83948,8.35861 10.04297,12.74219 0.60376,0.82516 1.20753,1.65032 1.82959,2.50049 C 806.86974,317.12591 819.6807,337.84372 830,360 c 0.57549,1.23146 0.57549,1.23146 1.1626,2.48779 9.44059,20.41908 16.82531,41.57785 21.8374,63.51221 0.49891,1.83363 0.99888,3.66697 1.5,5.5 3.94543,15.82483 6.05318,32.2696 7.5,48.5 0.11215,1.2027 0.2243,2.40539 0.33984,3.64453 3.5175,45.24567 -0.95572,92.88268 -15.54296,135.99609 -0.59028,1.74768 -1.17236,3.49812 -1.75,5.25 -4.5955,13.92368 -9.54877,27.50021 -15.90088,40.72364 -0.76584,1.59432 -1.52331,3.19269 -2.27247,4.79492 C 817.13912,691.2178 804.65245,710.55575 791,729 c -0.53899,0.72832 -1.07798,1.45664 -1.6333,2.20703 C 782.94377,739.83802 776.34177,748.12454 769,756 c -1.23517,1.39052 -2.46464,2.78614 -3.6875,4.1875 -0.84305,0.96293 -0.84305,0.96293 -1.70313,1.94531 -1.04491,1.21231 -2.07706,2.4358 -3.09375,3.67188 -3.12592,3.78135 -6.45177,6.95131 -10.1914,10.12109 -2.83626,2.53119 -5.47862,5.23475 -8.13672,7.94922 -4.90875,4.96766 -10.00218,9.51461 -15.51465,13.81592 -1.95516,1.53 -3.89535,3.07826 -5.83691,4.62549 -8.6652,6.86677 -17.42955,13.42541 -26.76026,19.36035 -1.47046,0.93741 -2.93579,1.8829 -4.39746,2.83398 -19.13628,12.43991 -39.4344,21.85437 -60.48633,30.57715 -1.83223,0.76244 -3.65578,1.54571 -5.47705,2.33398 C 612.23699,862.17986 600.01216,864.93811 588,868 c -1.38687,0.36424 -1.38687,0.36424 -2.80176,0.73584 -11.93026,3.11525 -23.90781,5.03944 -36.13574,6.51416 -0.68861,0.0832 -1.37722,0.16635 -2.0867,0.25204 C 529.22944,877.61192 511.98668,878 494,878 c 0,-31.35 0,-62.7 0,-95 5.94,0 11.88,0 18,0 0,-17.16 0,-34.32 0,-52 -12.69985,0.0396 -12.69985,0.0396 -25.39966,0.0901 -1.59204,0.003 -3.18408,0.005 -4.77612,0.008 -0.82673,0.005 -1.65347,0.0102 -2.50525,0.0155 -3.36077,5.1e-4 -6.10787,-0.0428 -9.31897,-1.11316 -1.41992,-1.44336 -1.41992,-1.44336 -2.96875,-3.34375 -3.01718,-3.55596 -6.19037,-6.90512 -9.5,-10.1875 -0.48783,-0.48453 -0.97566,-0.96905 -1.47827,-1.46826 -1.51571,-1.50216 -3.03389,-3.00176 -4.55298,-4.50049 -12.03133,-11.87005 -12.03133,-11.87005 -16.4856,-17.34888 -1.70883,-1.82481 -3.33303,-3.21431 -5.30029,-4.72998 -5.50118,-4.44189 -9.76484,-8.31345 -10.75952,-15.58764 -0.38787,-5.89947 -0.094,-11.75067 0.23291,-17.646 0.0653,-2.06036 0.12463,-4.12093 0.17773,-6.18164 0.14204,-5.00699 0.36555,-10.00417 0.63477,-15.00586 0.95681,-0.46479 1.91361,-0.92958 2.89941,-1.40845 4.91764,-2.52425 7.99484,-6.45352 10.10059,-11.59155 0.72127,-6.20104 0.63518,-11.73525 -3,-17 -4.01715,-4.79826 -8.12798,-7.42426 -14.39062,-8.35547 -6.48347,-0.36793 -10.73271,1.08318 -15.60938,5.35547 -4.29005,4.05172 -6.37687,7.52828 -6.625,13.5 0.36436,5.97886 1.94832,10.69752 6.12109,15.06641 2.41082,2.11021 4.45503,3.4173 7.50391,4.43359 0,9.9 0,19.8 0,30 -4.6637,-3.99745 -8.82883,-7.78674 -12.875,-12.3125 -0.95356,-1.06054 -1.90936,-2.11909 -2.86719,-3.17578 -0.47171,-0.53979 -0.94342,-1.07957 -1.42943,-1.63571 -1.80003,-1.9521 -1.80003,-1.9521 -4.08438,-3.5185 -4.08319,-3.22073 -6.81748,-6.12903 -7.53575,-11.37019 -0.36635,-5.00846 -0.22152,-10.00724 -0.0872,-15.02248 0.0168,-1.84798 0.0296,-3.69601 0.0386,-5.54405 0.0342,-4.83929 0.12244,-9.6761 0.22234,-14.51442 0.0924,-4.94696 0.13325,-9.89433 0.17853,-14.84192 0.0962,-9.68923 0.2496,-19.37663 0.43945,-29.06445 0.60546,-0.25757 1.21091,-0.51514 1.83472,-0.78052 0.80091,-0.347 1.60182,-0.694 2.427,-1.05151 0.79108,-0.34007 1.58216,-0.68014 2.39722,-1.03052 6.12302,-2.97499 10.19954,-7.15329 12.6809,-13.51245 1.66742,-6.63021 1.88659,-13.8333 -1.02734,-20.125 -4.03107,-6.70906 -9.47718,-10.08234 -16.3125,-13.5 -12.2321,-0.98306 -12.2321,-0.98306 -23,4 -6.06202,5.44721 -9.29609,11.19029 -10.27734,19.28906 -0.30365,7.06883 1.56243,12.81684 5.90234,18.39844 2.45055,2.64769 4.90979,4.32154 8.08594,6.01953 0.80486,0.43417 1.60971,0.86835 2.43896,1.31568 0.61053,0.3225 1.22107,0.64501 1.8501,0.97729 -0.0119,1.07582 -0.0238,2.15165 -0.0361,3.26007 -0.10534,10.18004 -0.1521,20.35891 -0.14272,30.53951 0.003,5.23319 -0.0141,10.46466 -0.0783,15.69749 -0.0613,5.0582 -0.0682,10.11393 -0.0388,15.17239 0.002,1.92159 -0.0152,3.8433 -0.0524,5.76454 -0.39522,12.30256 -0.39522,12.30256 5.04387,22.90771 2.31452,2.3859 4.75973,4.51702 7.30436,6.65829 1.1888,1.19358 2.3665,2.39851 3.52441,3.62207 0.99453,0.98792 1.99156,1.97333 2.99122,2.95605 0.54493,0.54115 1.08986,1.08229 1.6513,1.63984 1.69183,1.67992 3.38696,3.35644 5.08307,5.03204 12.88567,12.73183 12.88567,12.73183 18.2334,19.01074 2.52413,2.89471 5.26906,5.55857 8.0166,8.23926 3.43387,3.35033 6.7447,6.73669 9.875,10.375 3.82854,4.43059 7.94922,8.52392 12.125,12.625 4.78193,4.69639 9.44614,9.39305 13.71094,14.57031 1.73153,2.00624 1.73153,2.00624 3.98437,3.45313 3.25968,2.40732 5.42524,4.48836 6.20996,8.6001 0.60109,6.4533 0.32147,12.91006 0.0947,19.37646 -0.0402,1.98691 -0.0767,3.97389 -0.10937,5.96094 -0.081,4.84984 -0.23746,9.68883 -0.39063,14.53906 5.94,0 11.88,0 18,0 0.38737,7.67584 0.69772,15.34794 0.88081,23.03124 0.088,3.57032 0.20671,7.13351 0.40166,10.69972 1.32726,24.91014 1.32726,24.91014 -5.10718,32.77295 -4.00664,4.07 -8.40534,7.38063 -13.17529,10.49609 -1.94091,1.94091 -1.39919,5.47294 -1.5625,8.0625 -0.12568,1.93553 -0.12568,1.93553 -0.25391,3.91016 -0.0606,0.99902 -0.12117,1.99804 -0.18359,3.02734 -9.46485,0.6013 -19.01179,-1.00393 -28,-4 0.006,-0.56396 0.0127,-1.12793 0.0193,-1.70898 0.65378,-12.24632 0.65378,-12.24632 -4.01929,-22.91602 -1.31474,-1.14667 -2.6498,-2.27029 -4,-3.375 -1.58551,-1.70809 -3.14725,-3.43849 -4.6875,-5.1875 -0.72574,-0.79793 -1.45148,-1.59586 -2.19922,-2.41797 -0.69738,-0.79019 -1.39476,-1.58039 -2.11328,-2.39453 -0.69553,-0.67031 -1.39106,-1.34063 -2.10767,-2.03125 -2.72414,-4.27372 -2.39498,-7.89938 -2.28295,-12.86328 0.006,-0.94736 0.0113,-1.89471 0.0172,-2.87077 0.0223,-3.01626 0.0725,-6.03131 0.12347,-9.0472 0.0201,-2.04881 0.0383,-4.09764 0.0547,-6.14648 0.044,-5.01414 0.11303,-10.02737 0.19531,-15.04102 0.75491,-0.2641 1.50981,-0.52819 2.2876,-0.80029 0.99048,-0.35208 1.98096,-0.70415 3.00146,-1.0669 0.98178,-0.34659 1.96357,-0.69319 2.9751,-1.05029 6.96415,-2.75558 9.70923,-7.29124 12.75537,-13.77783 2.64915,-6.22709 2.96224,-12.20285 0.66797,-18.61719 -1.21256,-2.90436 -2.7042,-5.23198 -4.6875,-7.6875 0,-0.66 0,-1.32 0,-2 -0.56848,-0.27586 -1.13695,-0.55172 -1.72266,-0.83594 C 426,738 426,738 423.87891,736.71094 416.95732,732.71906 410.90356,731.93168 403,733 c -8.54531,2.36601 -13.44643,7.51913 -18,15 -2.42015,7.26046 -2.16893,16.61227 1.0625,23.5625 3.43629,5.86708 7.90889,9.47963 13.9375,12.4375 -10e-4,0.89417 -10e-4,0.89417 -0.002,1.8064 -0.002,6.23025 0.0369,12.45927 0.10007,18.68921 0.0181,2.32188 0.0257,4.64387 0.0225,6.96582 -0.003,3.34703 0.0326,6.69185 0.0752,10.03857 -0.009,1.03052 -0.0182,2.06105 -0.0276,3.1228 0.15413,7.72288 2.41934,11.9643 7.83224,17.3772 0.0871,1.70772 0.107,3.41899 0.0977,5.12891 -0.003,1.03447 -0.006,2.06894 -0.01,3.13476 -0.008,1.08862 -0.0168,2.17723 -0.0254,3.29883 -0.007,1.63872 -0.007,1.63872 -0.0137,3.31055 -0.0118,2.70903 -0.0283,5.41797 -0.0488,8.12695 -7.60298,-1.70557 -14.97726,-3.87509 -22.375,-6.3125 -0.8362,-0.27143 -1.6724,-0.54286 -2.53394,-0.82251 C 375.47337,855.31798 368.46332,852.19856 361,849 c 0,-37.29 0,-74.58 0,-113 5.94,-2.97 5.94,-2.97 12,-6 2.5264,-2.83665 4.22508,-4.81335 6,-8 0.53367,-0.92297 1.06734,-1.84594 1.61719,-2.79688 2.83404,-6.56474 2.67455,-14.46002 0.35156,-21.1914 C 377.61176,691.86656 373.09797,688.28181 367,685 c -0.63164,-0.37512 -1.26328,-0.75023 -1.91406,-1.13672 -5.52349,-2.28594 -12.90636,-1.57561 -18.46094,0.38672 -7.99136,3.54803 -12.6644,7.93496 -15.875,16.0625 -2.56866,7.61423 -2.61915,13.20086 0.99609,20.51953 3.1193,5.39319 6.43872,8.91653 11.96094,11.87109 0.80542,0.43474 1.61085,0.86948 2.44068,1.31739 0.91688,0.48485 0.91688,0.48485 1.85229,0.97949 0.2323,10.14439 0.40968,20.28814 0.51812,30.43465 0.0521,4.71228 0.12261,9.42273 0.23627,14.13395 0.10913,4.55189 0.16855,9.10203 0.19438,13.65513 0.0184,1.73168 0.0543,3.46328 0.10853,5.19422 0.40708,13.54486 0.40708,13.54486 -3.23116,18.60624 -2.5014,2.27432 -4.99302,4.141 -7.82614,5.97581 -1.14083,0.93329 -2.27089,1.88011 -3.38281,2.84766 -0.90492,0.73089 -1.80985,1.46179 -2.74219,2.21484 -0.9307,0.7541 -1.86141,1.5082 -2.82031,2.28516 -1.01707,0.81791 -1.01707,0.81791 -2.05469,1.65234 -3.42359,-1.2871 -6.47661,-2.77146 -9.58984,-4.6875 -1.28971,-0.79314 -1.28971,-0.79314 -2.60547,-1.60229 -0.90492,-0.56437 -1.80985,-1.12874 -2.74219,-1.71021 -0.93715,-0.58306 -1.8743,-1.16612 -2.83984,-1.76685 C 301.58561,817.4423 294.21458,812.40209 287,807 c -0.53496,-0.39751 -1.06992,-0.79503 -1.62109,-1.20459 -19.11041,-14.23542 -36.62887,-30.33598 -52.67823,-47.93311 -2.30347,-2.52237 -4.6241,-5.0287 -6.94409,-7.53588 C 223.50075,747.88762 221.25025,745.44395 219,743 c 0.825,-0.99 1.65,-1.98 2.5,-3 0.54012,-0.65227 1.08023,-1.30453 1.63672,-1.97656 C 225,736 225,736 227.14453,734.35156 229.65719,732.35049 231.32205,730.75956 233,728 c 0.25062,-2.84516 0.35577,-5.47529 0.3125,-8.3125 -0.046,-5.5852 0.21678,-9.16289 4.26904,-13.44482 2.38402,-2.20166 4.8655,-4.24069 7.41846,-6.24268 1.40184,-1.22231 2.79847,-2.45065 4.1875,-3.6875 0.63293,-0.54012 1.26586,-1.08023 1.91797,-1.63672 2.75563,-2.43746 5.29891,-5.07078 7.87891,-7.69141 2.61478,-2.57424 5.36303,-4.96605 8.15625,-7.34375 0.61359,-0.5414 1.22718,-1.08281 1.85937,-1.64062 0.68709,-0.58413 1.37418,-1.16825 2.08209,-1.77008 2.3459,-2.72753 2.42997,-3.99614 2.46381,-7.54926 0.0197,-1.06079 0.0394,-2.12159 0.0598,-3.21453 10e-4,-1.13867 0.002,-2.27733 0.004,-3.45051 0.0165,-1.17073 0.0331,-2.34146 0.0501,-3.54766 0.0486,-3.73938 0.0699,-7.47834 0.0905,-11.21796 0.0281,-2.53518 0.0581,-5.07033 0.0898,-7.60547 0.074,-6.21477 0.12557,-12.42942 0.16016,-18.64453 1.23738,-0.58117 1.23738,-0.58117 2.49976,-1.17407 1.0816,-0.52135 2.1632,-1.04269 3.27758,-1.57984 1.07242,-0.51119 2.14484,-1.02238 3.24976,-1.54907 4.30339,-2.4565 6.58681,-5.43555 8.9729,-9.69702 0.92813,-1.60875 0.92813,-1.60875 1.875,-3.25 1.99145,-6.63816 2.45843,-13.72702 -0.5625,-20.125 -0.73591,-1.22991 -1.50583,-2.44029 -2.3125,-3.625 -0.70125,-1.05188 -1.4025,-2.10375 -2.125,-3.1875 -5.04068,-5.74731 -13.12764,-8.55844 -20.5625,-9.0625 -8.33229,0.18516 -14.36589,3.21769 -20.35937,8.94922 -4.85229,5.71599 -6.69383,12.35473 -6.33204,19.78906 1.09787,7.27761 3.99048,12.80233 9.20704,17.94141 2.05578,1.48637 4.03684,2.55086 6.30761,3.66845 0.7229,0.35708 1.44581,0.71417 2.19061,1.08207 0.55231,0.27053 1.10461,0.54106 1.67365,0.81979 0.43637,6.54046 0.73077,13.0771 0.93384,19.62891 0.0847,2.22017 0.20019,4.43942 0.34863,6.65625 1.26321,19.37209 1.26321,19.37209 -4.86768,26.59057 -3.48204,3.49231 -7.24142,6.51548 -11.20791,9.43715 -3.58369,2.73967 -6.77669,5.87166 -10.01938,8.99962 -1.2297,1.15195 -2.4612,2.30199 -3.69531,3.44922 -0.88027,0.81863 -0.88027,0.81863 -1.77832,1.65381 -1.62388,1.50127 -3.256,2.99269 -4.89356,4.479 -0.50249,0.45617 -1.00498,0.91234 -1.5227,1.38233 -0.49009,0.44488 -0.98017,0.88977 -1.48511,1.34814 -4.82951,4.39702 -9.45494,8.95966 -13.9812,13.66846 -1.24106,1.27171 -2.5322,2.49418 -3.8313,3.70654 -0.66,0 -1.32,0 -2,0 -1.54695,-1.98624 -2.93716,-3.95974 -4.3125,-6.0625 -0.43296,-0.65613 -0.86593,-1.31227 -1.31201,-1.98828 -5.74118,-8.85932 -10.83604,-18.10083 -15.93018,-27.3418 -1.20172,-2.16797 -2.42429,-4.3205 -3.66406,-6.4668 -27.98937,-49.78436 -40.03478,-110.328 -39.96875,-166.95312 6e-4,-0.95559 0.001,-1.91118 0.002,-2.89572 0.0249,-14.51654 0.33596,-28.87573 2.18567,-43.29178 0.12359,-1.00063 0.24718,-2.00127 0.37451,-3.03223 C 144.79663,428.24476 154.51274,394.8321 169,363 c 0.64101,-1.44514 1.28165,-2.89045 1.92188,-4.33594 C 191.61187,312.64934 224.82394,269.9045 263,237 c 0.92245,-0.79845 0.92245,-0.79845 1.86353,-1.61304 45.58901,-39.17111 100.80142,-65.89319 159.51147,-78.32446 0.67593,-0.14375 1.35186,-0.2875 2.04828,-0.43561 C 435.89979,154.63328 445.38441,153.13583 455,152 c 0.94907,-0.11239 1.89814,-0.22478 2.87598,-0.34058 C 555.99168,140.84501 654.48824,169.69371 731,232 Z"
     fill="#031422"
     id="path2" />
  <path
     d="m 500.85181,178.8147 c 2.58147,-0.002 5.16251,-0.0205 7.7439,-0.0393 16.01699,-0.0546 31.80754,1.34979 47.59179,4.09961 1.00773,0.1729 2.01545,0.34579 3.05371,0.52393 57.3359,10.06709 116.81339,36.11484 159.45801,76.44092 1.94503,1.82614 3.92681,3.56627 5.94922,5.30468 C 736.73598,275.68444 748.22191,287.28282 758,300 c 1.26651,1.50627 1.26651,1.50627 2.5586,3.04297 C 786.42975,333.88383 805.02844,370.06041 818,408 c 0.40058,1.1463 0.80116,2.2926 1.21387,3.47364 2.98853,8.70315 5.4058,17.41084 7.41113,26.40136 0.14875,0.66088 0.29749,1.32176 0.45075,2.00266 2.8916,12.93675 4.79918,25.9134 5.92425,39.12234 0.14031,1.61866 0.14031,1.61866 0.28345,3.27002 0.70206,8.82967 0.91578,17.62482 0.90405,26.47998 6e-5,0.70845 1.2e-4,1.4169 1.9e-4,2.14682 C 834.16619,528.74709 833.12832,546.40796 830,564 c -0.30994,1.81901 -0.61983,3.63802 -0.92968,5.45703 -0.31422,1.78532 -0.62932,3.57047 -0.94532,5.35547 -0.14824,0.86948 -0.29648,1.73895 -0.44922,2.63477 -2.3997,13.47149 -6.42971,26.52563 -10.73828,39.49023 -0.23638,0.71217 -0.47276,1.42434 -0.71631,2.15808 C 811.73257,632.52333 806.35535,645.33897 800,658 c -0.68062,1.36754 -0.68062,1.36754 -1.375,2.7627 -22.99884,45.91602 -55.87748,88.82747 -96.97363,119.97119 -1.56672,1.20121 -3.10608,2.43786 -4.64355,3.67627 -28.53786,22.79322 -62.31429,39.51813 -96.89258,50.88623 -1.98058,0.65882 -3.94724,1.34721 -5.91211,2.05127 -1.61649,0.57041 -1.61649,0.57041 -3.26563,1.15234 -1.34771,0.47953 -1.34771,0.47953 -2.72265,0.96875 C 586,840 586,840 583,839 c 0.3893,-0.40347 0.7786,-0.80695 1.17969,-1.22265 C 594.38863,826.69806 601.74075,814.06177 607,800 c 0.43442,-1.15113 0.86883,-2.30226 1.31641,-3.48828 C 615.18436,775.76428 610.20777,752.27492 601,733 c -0.57621,-0.9191 -1.15242,-1.8382 -1.74609,-2.78515 -0.41379,-0.7309 -0.82758,-1.4618 -1.25391,-2.21485 0.33,-0.66 0.66,-1.32 1,-2 5.94,3.3 11.88,6.6 18,10 -1.42716,-2.85433 -2.73991,-5.19203 -4.53906,-7.76562 -14.26498,-20.69539 -25.92796,-42.28739 -22,-68.28516 1.78251,-6.74208 5.39597,-11.74806 10.23047,-16.67187 4.41504,-2.44284 8.48539,-1.79544 13.14893,-0.47022 3.26404,1.11166 6.49274,2.29696 9.72216,3.50537 19.03179,6.82015 36.4024,10.19757 56.4375,5.6875 1.16983,-0.23976 1.16983,-0.23976 2.36328,-0.48437 C 700.2368,647.06978 716.99564,634.55416 728,620 c 0.62093,-0.81186 0.62093,-0.81186 1.2544,-1.64013 13.4511,-17.75882 29.58741,-41.19568 30.0581,-64.23487 0.0561,-1.79051 0.0561,-1.79051 0.11328,-3.61718 -0.96549,-7.95425 -7.86029,-13.21981 -13.28515,-18.59766 -0.86321,-0.86275 -1.72642,-1.7255 -2.61579,-2.6144 -1.82329,-1.82028 -3.64901,-3.63814 -5.47699,-5.45372 -2.7795,-2.76131 -5.55098,-5.53048 -8.32128,-8.30102 -1.77818,-1.77326 -3.55681,-3.54606 -5.33594,-5.31836 -0.82111,-0.82 -1.64223,-1.64 -2.48822,-2.48485 -4.26298,-4.22843 -8.59255,-8.31672 -13.15257,-12.22409 C 703.52258,490.9918 698.695,486.06647 694,481 c -0.81211,-0.87527 -1.62422,-1.75054 -2.46093,-2.65234 -4.59928,-5.89908 -4.92312,-10.43008 -4.03907,-17.59766 0.43686,-2.92955 0.95657,-5.83858 1.5,-8.75 3.77958,-22.07794 0.98256,-41.73108 -11.16797,-60.49609 -1.70559,-2.4691 -1.70559,-2.4691 -3.57031,-4.22656 C 673,386 673,386 673,384 c -0.66,0 -1.32,0 -2,0 0,-0.66 0,-1.32 0,-2 -0.57363,-0.25781 -1.14726,-0.51562 -1.73828,-0.78125 -2.46859,-1.33022 -4.3276,-2.88627 -6.44922,-4.71875 C 655.78669,370.75257 647.87575,366.45866 640,362 c 0.45573,-2.96224 0.91146,-5.92448 1.36719,-8.88672 0.0929,-0.62398 0.18579,-1.24797 0.28149,-1.89087 0.26191,-1.65676 0.55214,-3.30908 0.85694,-4.95849 1.63679,-9.35383 1.85175,-18.48744 1.80688,-27.95142 -0.002,-0.79719 -0.004,-1.59439 -0.006,-2.41574 -0.0446,-11.57392 -0.52594,-22.61932 -3.30698,-33.89676 -0.34451,-1.56233 -0.68822,-3.12484 -1.03125,-4.6875 -4.7896,-20.78556 -14.71035,-39.24109 -29.96875,-54.3125 -0.66,-0.33 -1.32,-0.66 -2,-1 -0.37125,1.2549 -0.37125,1.2549 -0.75,2.53516 -1.39483,3.8663 -3.21849,7.34601 -5.25,10.90234 -0.39663,0.69739 -0.79325,1.39477 -1.2019,2.11328 -10.41224,18.065 -23.01858,34.8259 -36.7981,50.44922 -0.46825,0.53142 -0.9365,1.06283 -1.41894,1.61035 -5.51188,6.21824 -11.10797,12.15325 -17.58106,17.38965 -0.48807,0.40574 -0.97614,0.81147 -1.479,1.22949 -8.85989,7.35368 -18.46247,15.08434 -29.521,18.77051 -0.15819,-1.51799 -0.15819,-1.51799 -0.31958,-3.06665 -0.40113,-3.83085 -0.8116,-7.66065 -1.22461,-11.49023 -0.17597,-1.64329 -0.34955,-3.28684 -0.5205,-4.93067 -1.52381,-14.6305 -3.79652,-28.79793 -8.18483,-42.88745 -0.30373,-0.97896 -0.60747,-1.95792 -0.92041,-2.96655 -5.42388,-17.13179 -11.9887,-33.0353 -24.61474,-46.20532 C 477,214 477,214 477,212 c -0.66,0 -1.32,0 -2,0 -1.68934,-1.64368 -3.3526,-3.31429 -5,-5 -1.64864,-1.35555 -3.31004,-2.69631 -5,-4 -0.27006,0.73864 -0.54011,1.47727 -0.81836,2.23828 -1.13386,2.65005 -2.37114,4.64727 -4.08789,6.94922 -0.57363,0.77408 -1.14726,1.54817 -1.73828,2.34571 -0.6123,0.81404 -1.22461,1.62808 -1.85547,2.46679 -0.63293,0.85014 -1.26586,1.70028 -1.91796,2.57617 -4.26679,5.71646 -8.60769,11.37202 -12.97266,17.01368 -22.24958,28.94006 -42.61594,59.39 -61.64038,90.53613 -11.3777,18.5029 -21.01005,26.92495 -42.344,32.06152 -7.8119,1.80248 -15.65955,2.93132 -23.625,3.8125 14.23108,5.02693 14.23108,5.02693 29,8 -2.46864,2.47304 -4.94089,4.94175 -7.42968,7.39453 -4.44706,4.39733 -8.76697,8.82984 -12.82422,13.58985 -1.18667,1.36985 -2.40448,2.71321 -3.64844,4.03125 C 310.9365,404.7087 304.0426,414.39951 297,424 c -0.47614,0.64518 -0.95229,1.29035 -1.44287,1.95508 -10.46779,14.21112 -19.80345,29.19012 -29.11963,44.16992 -29.11242,46.75779 -29.11242,46.75779 -47.09375,56.52735 -0.77343,0.44472 -1.54687,0.88945 -2.34375,1.34765 0,0.33 0,0.66 0,1 3.00025,0.0544 5.99949,0.0939 9,0.125 0.83918,0.0168 1.67836,0.0335 2.54297,0.0508 5.5278,0.0429 10.14425,-0.65124 15.45703,-2.17578 1.99602,-0.35643 3.99485,-0.69922 6,-1 -6.82939,24.50339 -20.74832,54.88278 -43,69 -0.99,0.66 -1.98,1.32 -3,2 10.97797,0.7984 18.47288,-4.58193 27,-11 -4.94957,19.38582 -13.30436,31.71552 -27,46 -1.08088,1.14276 -1.08088,1.14276 -2.18359,2.3086 -2.81677,2.91369 -5.09261,4.99804 -8.81641,6.6914 -13.95717,-30.80973 -21.59204,-63.41902 -25,-97 -0.0822,-0.72532 -0.16437,-1.45065 -0.24905,-2.19795 -0.65114,-5.97841 -0.92366,-11.88021 -0.95407,-17.89189 -0.007,-0.93395 -0.014,-1.8679 -0.0213,-2.83016 -0.0174,-3.00588 -0.0238,-6.01157 -0.0256,-9.0175 -6.7e-4,-1.02927 -0.001,-2.05855 -0.002,-3.11902 0.0168,-16.17291 0.59612,-31.95658 3.25204,-47.94348 0.17693,-1.07508 0.35385,-2.15015 0.53614,-3.25781 4.37054,-25.78545 10.95632,-50.76126 21.46386,-74.74219 0.29713,-0.69367 0.59426,-1.38735 0.90039,-2.10205 14.28094,-33.28697 33.73765,-63.06645 57.63672,-90.23022 1.0386,-1.18402 2.07048,-2.37394 3.09766,-3.56787 4.19824,-4.86146 8.57088,-9.49853 13.11523,-14.03736 0.70101,-0.7002 1.40202,-1.4004 2.12427,-2.12182 4.61981,-4.56579 9.32528,-8.80206 14.43823,-12.81177 2.48406,-1.96775 4.87567,-4.01711 7.26148,-6.10205 7.70146,-6.69115 15.9051,-12.43282 24.42602,-18.02686 0.70834,-0.47018 1.41668,-0.94037 2.14649,-1.4248 17.86943,-11.8143 36.81575,-22.88368 56.85351,-30.5752 1.08926,-0.44988 2.17852,-0.89976 3.30078,-1.36328 20.6488,-8.22846 42.73889,-14.27948 64.69922,-17.63672 0.89477,-0.14131 1.78954,-0.28262 2.71143,-0.42822 2.8023,-0.43659 5.60674,-0.8529 8.41357,-1.25928 0.80962,-0.11972 1.61923,-0.23944 2.45337,-0.36279 14.97272,-2.02142 30.18846,-2.13646 45.27342,-2.13503 z"
     fill="#fdfefe"
     id="path3" />
  <path
     d="m 632,380 c 17.64027,6.91223 31.11135,17.66978 38.92187,35.19141 2.59034,6.748 3.43256,12.58683 3.39063,19.74609 -0.002,1.38337 -0.002,1.38337 -0.004,2.79468 -0.0797,5.76003 -0.6162,11.19845 -1.8086,16.83032 -2.9219,13.87904 -1.53748,22.64475 6.09375,34.58472 3.35941,5.01027 7.29554,9.14262 11.58594,13.36059 0.77159,0.76972 1.54319,1.53945 2.33816,2.33249 1.62188,1.6152 3.24734,3.22683 4.87619,4.83499 2.47412,2.44296 4.9374,4.89642 7.39893,7.35205 1.58662,1.57745 3.17384,3.15429 4.76172,4.73047 1.09101,1.08464 1.09101,1.08464 2.20407,2.1912 4.0409,3.9855 8.16882,7.81541 12.47687,11.5112 2.70612,2.36167 5.22797,4.87135 7.76437,7.41479 0.48855,0.48469 0.97711,0.96938 1.48047,1.46875 C 737,547.87314 737,547.87314 737,549 c -12.21,0 -24.42,0 -37,0 -0.66,1.32 -1.32,2.64 -2,4 -1.85829,1.99564 -3.77956,3.90375 -5.73438,5.80469 -1.60013,2.21367 -1.60013,2.21367 -0.66015,5.125 5.94171,13.08174 16.09244,26.0527 29.39453,32.07031 -3.54169,12.71281 -16.06649,23.7161 -27.06641,30.39844 -17.21042,9.39583 -35.39316,11.38426 -54.26562,6.11328 -8.94563,-2.76523 -17.56191,-6.50319 -26.20166,-10.08692 -6.12961,-2.51953 -12.29821,-4.93904 -18.46631,-7.3623 -1.16249,-0.46028 -2.32498,-0.92055 -3.5227,-1.39478 -8.4147,-3.31354 -16.69548,-6.40016 -25.5398,-8.35522 -1.68803,-0.37705 -1.68803,-0.37705 -3.41016,-0.76172 C 561.69332,604.36902 560.8593,604.18727 560,604 c 0.56848,0.88301 1.13695,1.76602 1.72266,2.67578 0.77997,1.21222 1.55992,2.42446 2.33984,3.63672 0.40831,0.6343 0.81662,1.2686 1.2373,1.92212 2.50165,3.88965 4.98248,7.79158 7.4502,11.70288 2.61921,4.12724 5.35955,8.12098 8.25,12.0625 -0.9156,1.22996 -1.83254,2.45892 -2.75,3.6875 -0.55043,0.73863 -1.10086,1.47727 -1.66797,2.23828 -1.16264,1.52435 -2.3875,3.00173 -3.64453,4.44922 -5.59312,7.57777 -8.06228,14.61775 -8.07031,23.95312 -9.6e-4,0.70784 -0.002,1.41568 -0.003,2.14496 -6.8e-4,1.49612 0.001,2.99224 0.005,4.48835 0.005,2.26683 6e-5,4.53346 -0.006,6.80029 6.6e-4,1.45963 0.002,2.91927 0.004,4.3789 0.002,1.97275 0.002,1.97275 0.003,3.98536 0.13467,4.03193 0.56998,7.88204 1.12939,11.87402 -7.02263,-4.32553 -13.0295,-9.32542 -19,-15 -0.49467,-0.46213 -0.98935,-0.92426 -1.49902,-1.40039 -11.78901,-11.05636 -24.76783,-26.88421 -25.61036,-43.79492 -0.0135,-1.93519 0.0415,-3.87064 0.10938,-5.80469 -0.66,0 -1.32,0 -2,0 -0.46477,1.45629 -0.92134,2.91521 -1.375,4.375 -0.25523,0.81211 -0.51047,1.62422 -0.77344,2.46094 -2.34849,8.72604 -3.11938,16.74736 -2.97656,25.78906 0.009,1.09957 0.0181,2.19914 0.0273,3.33203 0.0233,2.68123 0.056,5.36198 0.0977,8.04297 -3.33913,-3.23582 -5.86606,-6.58487 -8.25,-10.5625 -0.57935,-0.96498 -0.57935,-0.96498 -1.17041,-1.94946 C 498.86526,661.37982 495.39839,652.72301 492,644 c -0.27465,-0.68949 -0.5493,-1.37897 -0.83228,-2.08936 -7.73833,-19.85478 -7.93559,-44.21284 0.469,-63.92236 0.44988,-0.98613 0.89976,-1.97226 1.36328,-2.98828 -8.65276,7.01925 -14.57129,14.31428 -20,24 -0.5659,0.98227 -1.1318,1.96453 -1.71484,2.97656 -5.34102,10.3015 -7.12623,21.7173 -9.28516,33.02344 -5.95905,-5.95905 -7.33907,-16.57817 -9.1875,-24.5 -0.25975,-1.06348 -0.51949,-2.12695 -0.78711,-3.22266 C 443.99635,573.45995 450.75713,542.56925 468,513 c 1.29328,-2.03222 2.63221,-4.01639 4,-6 -20.12688,5.54219 -36.55514,21.425 -47.125,38.93359 -1.51733,2.48147 -3.08006,4.78347 -4.875,7.06641 0.78072,-18.7763 6.78372,-34.59625 20,-48 0.54141,-0.61359 1.08281,-1.22719 1.64063,-1.85937 9.96083,-10.96699 24.79829,-17.06338 37.90869,-23.36622 22.83241,-11.02025 43.14559,-24.30546 62.6538,-40.47363 3.36043,-2.76437 6.75809,-5.47776 10.17188,-8.17578 0.87519,-0.69718 0.87519,-0.69718 1.76807,-1.40845 C 563.2646,422.53009 563.2646,422.53009 570,423 c -7.15356,-10.548 -15.38892,-16.81333 -27,-22 3.99091,-3.99091 11.46919,-3.05532 16.875,-3.0625 1.70838,0.017 3.41673,0.0373 5.125,0.0625 0.99,0 1.98,0 3,0 -3.54638,-5.74175 -9.16401,-8.07195 -15,-11 3.33383,-1.11128 4.19326,-0.89453 7.46484,0.0391 0.87745,0.24855 1.7549,0.4971 2.65894,0.75318 0.92853,0.27481 1.85705,0.54962 2.81372,0.83276 1.41503,0.41125 1.41503,0.41125 2.85864,0.83081 7.67517,2.27996 15.03109,4.9578 22.20386,8.54419 -1.10331,-1.58393 -2.20768,-3.16712 -3.3125,-4.75 -0.61488,-0.88172 -1.22977,-1.76344 -1.86328,-2.67188 C 584.25167,388.35568 582.64631,386.16807 581,384 c 20.78394,5.46946 41.18327,22.82594 52,41 1.51201,2.72357 2.95841,5.47571 4.375,8.25 0.34627,0.6737 0.69255,1.34739 1.04932,2.0415 1.92517,3.9015 3.09944,7.32711 3.57568,11.7085 0.66,0 1.32,0 2,0 -0.10861,-23.51665 -0.55158,-45.79485 -12,-67 z"
     fill="#fdfdfd"
     id="path4" />
  <path
     d="m 474,242 c 3.61295,3.43977 5.78077,6.94481 7.875,11.4375 0.34442,0.73791 0.68884,1.47581 1.0437,2.23608 6.28878,14.0212 9.69715,29.19823 12.0813,44.32642 0.25801,1.56138 0.25801,1.56138 0.52124,3.1543 0.53554,4.30182 0.65883,8.49276 0.68188,12.82226 0.006,0.84711 0.0114,1.69421 0.0173,2.56699 0.009,1.78674 0.016,3.5735 0.0198,5.36026 0.01,2.69254 0.0407,5.3843 0.0723,8.07666 0.0596,9.81291 -0.47422,18.55952 -3.3125,28.01953 -0.20222,0.745 -0.40444,1.49 -0.61279,2.25757 C 489.32323,373.05451 479.05997,382.52136 472,391 c -0.33,-0.66 -0.66,-1.32 -1,-2 0.85073,-2.48328 1.76422,-4.88348 2.75,-7.3125 4.80331,-12.41111 6.74537,-23.42268 6.25,-36.6875 -0.32871,0.73863 -0.65742,1.47727 -0.99609,2.23828 C 474.47379,356.90007 469.2913,365.42522 460,371 c 0,-6.93 0,-13.86 0,-21 -2.16562,4.05281 -2.16562,4.05281 -4.375,8.1875 C 447.53957,372.93042 436.91998,385.18551 425,397 c 9.7716,-54.20271 26.88579,-104.73172 49,-155 z"
     fill="#fafbfb"
     id="path6" />
  <path
     d="m 312.5,504 c 6.97989,4.11129 12.20816,10.18078 14.5,18 1.15037,8.36894 -0.66707,16.50844 -5.73047,23.33203 -6.07659,6.53749 -12.32307,9.80466 -21.26953,10.16797 -8.69207,-0.34195 -15.00992,-3.66212 -21.26953,-9.60938 -5.86986,-6.41311 -6.4417,-12.58996 -6.16797,-21.19531 0.92226,-7.78982 3.89094,-12.76923 9.9375,-17.69531 8.58914,-6.29064 20.21917,-7.46222 30,-3 z"
     fill="#f8f9fa"
     id="path7" />
  <path
     d="m 599,453 c 7.8897,5.52863 12.59795,12.01157 16,21 0.12117,0.87785 0.24234,1.7557 0.36719,2.66016 0.87292,3.22765 2.35779,3.87101 5.19531,5.52734 1.50746,0.8913 2.99534,1.81901 4.4375,2.8125 0,0.66 0,1.32 0,2 -38.05751,10.58009 -38.05751,10.58009 -52,3 -5.46227,-3.37375 -8.46165,-8.02592 -10.75,-13.9375 C 561.84626,472.73168 562,469.3552 562,466 c -5.94,0 -11.88,0 -18,0 13.20487,-13.20487 37.74123,-23.02911 55,-13 z"
     fill="#051725"
     id="path8" />
  <path
     d="M 305.30078,699.92187 C 311.00185,703.2287 315.40847,707.88898 318,714 c 1.07285,6.53874 -0.0816,11.5079 -3.57031,17.08593 -3.03818,4.06751 -5.52992,5.68912 -10.42969,6.91407 0,16.83 0,33.65999 0,51 -2.64,-1.98001 -5.28,-3.96001 -8,-6 -1.14292,-0.75821 -2.28583,-1.51643 -3.46338,-2.29761 -3.11018,-3.31343 -3.21889,-4.96568 -3.2164,-9.36751 0.031,-0.84915 0.0619,-1.69829 0.0938,-2.57317 0.008,-0.88076 0.017,-1.76153 0.0257,-2.66899 0.0335,-2.803 0.10876,-5.60309 0.18521,-8.40522 0.0301,-1.90426 0.0575,-3.80856 0.082,-5.7129 0.066,-4.65932 0.16951,-9.31647 0.29297,-13.9746 -0.78931,-0.29802 -1.57862,-0.59604 -2.39185,-0.90308 -2.74464,-1.15433 -3.92164,-2.14353 -5.79565,-4.40942 -0.48856,-0.57364 -0.97711,-1.14727 -1.48047,-1.73829 C 276.51755,725.36732 276.00083,719.5711 277,713 c 2.47881,-6.12633 6.58068,-10.31982 12.50781,-13.1836 5.31631,-1.74155 10.54995,-1.9953 15.79297,0.10547 z"
     fill="#f7f9f9"
     id="path9" />
  <path
     d="m 616,256 c 10.21186,9.59054 12.68156,30.02854 13.19531,43.28613 0.14091,4.82116 0.17643,9.64087 0.17969,14.46387 0.002,0.77652 0.004,1.55304 0.006,2.35309 -0.002,8.45651 -0.33203,16.81829 -1.27948,25.22503 -0.077,0.6985 -0.15398,1.39699 -0.23331,2.11664 -0.47452,3.79802 -1.26504,7.07651 -2.86821,10.55524 -4.836,-1.43372 -8.96535,-3.44623 -13.3125,-5.9375 -0.63229,-0.3474 -1.26457,-0.6948 -1.91602,-1.05273 C 605.12101,344.36303 605.12101,344.36303 604,341 c 0.93558,-1.90458 1.8793,-3.80584 2.875,-5.67969 2.6839,-5.53554 4.34399,-11.15572 4.125,-17.32031 -0.48727,0.49629 -0.97453,0.99258 -1.47656,1.50391 C 603.03616,325.7199 596.08086,329.32166 588,333 c 1.34516,-3.58252 2.96176,-6.96228 4.7146,-10.36231 6.6136,-12.85605 11.50951,-26.0278 15.9729,-39.76269 0.57126,-1.75135 0.57126,-1.75135 1.15405,-3.53809 2.45932,-7.70373 4.46481,-15.43 6.15845,-23.33691 z"
     fill="#f7f9f9"
     id="path10" />
  <path
     d="m 275.25,582.6875 c 4.28897,3.60664 6.52353,5.52902 7.25,11.25 -0.24147,4.274 -1.68218,6.79977 -4.5,10.0625 -3.8022,3.28372 -6.85227,4.72239 -11.97266,4.45703 C 262.3902,607.6371 259.5792,605.64891 257,603 c -2.75074,-4.3975 -2.78561,-8.96893 -2,-14 1.63194,-3.18586 3.96539,-5.21512 6.8125,-7.375 5.09101,-1.45458 8.8198,-1.33515 13.4375,1.0625 z"
     fill="#061728"
     id="path11" />
  <path
     d="m 476,745 c 7.59,0 15.18,0 23,0 0,8.25 0,16.5 0,25 -7.59,0 -15.18,0 -23,0 0,-8.25 0,-16.5 0,-25 z"
     fill="#0b1c2b"
     id="path12" />
  <path
     d="m 362.25,697.1875 c 3.15513,2.07952 4.8816,3.50686 6.75,6.8125 0.68786,4.25082 0.47589,7.81027 -1.125,11.8125 -2.88462,3.3654 -5.56676,5.77797 -10.05469,6.57422 C 352.42554,722.6501 349.15616,721.66138 345,718 c -2.88516,-3.4622 -3.53918,-6.48797 -3.35156,-11.00781 0.77236,-4.37674 3.2883,-7.10614 6.60156,-9.86719 4.97907,-2.03689 9.08363,-1.73387 14,0.0625 z"
     fill="#061626"
     id="path13" />
  <path
     d="m 304,515 c 4.38411,2.19205 7.13093,4.43115 9,9 0.53636,4.82723 0.52018,6.97891 -1.6875,11.3125 -2.99919,3.48554 -5.00583,5.33976 -9.64453,6.03906 -4.38455,0.2498 -7.64592,0.20223 -11.16797,-2.60156 -3.88158,-4.26974 -4.98241,-6.77983 -4.81641,-12.72266 0.68387,-4.38178 3.24489,-7.1089 6.50391,-9.90234 4.0137,-1.60548 7.54946,-1.80167 11.8125,-1.125 z"
     fill="#071624"
     id="path14" />
  <path
     d="m 415,746 c 3.4903,1.97278 6.19845,4.39689 8,8 0.35017,5.34013 0.4807,8.67914 -3,13 -3.5326,3.7404 -6.71439,4.81819 -11.71875,5.16016 C 404.22128,771.87512 402.22037,770.51189 399,768 c -2.65772,-3.77225 -3.64827,-7.31385 -3.49609,-11.96875 0.93487,-3.82781 3.61896,-6.45972 6.49609,-9.03125 3.99531,-1.99765 8.66846,-1.64943 13,-1 z"
     fill="#061625"
     id="path15" />
  <path
     d="m 377,515 c 4.0065,1.30982 6.15561,2.80493 8.375,6.3125 1.68832,3.37664 2.2714,5.88991 1.625,9.6875 -2.47292,4.75561 -5.22116,7.56373 -10,10 -4.33823,0.61975 -6.3793,0.33422 -10.25,-1.75 -3.3023,-2.70188 -5.45164,-4.58164 -6.21875,-8.87109 -0.0848,-7.64578 -0.0848,-7.64578 2.78125,-11.44141 4.78896,-3.45251 7.7914,-4.63116 13.6875,-3.9375 z"
     fill="#071724"
     id="path16" />
  <path
     d="m 300,713 c 2.3125,1.625 2.3125,1.625 4,4 0.45319,3.17235 0.5299,5.06488 -1.0625,7.875 -3.04443,1.76773 -5.5006,1.49324 -8.9375,1.125 -1.9375,-1.0625 -1.9375,-1.0625 -3,-3 -0.4375,-3.5 -0.4375,-3.5 0,-7 2.64106,-3.03233 5.07015,-3.68772 9,-3 z"
     fill="#0c1927"
     id="path17" />
  <path
     d="m 417,610 c 1.9375,1.0625 1.9375,1.0625 3,3 0.4375,3.5 0.4375,3.5 0,7 -2.07692,2.38461 -3.40557,2.89598 -6.5,3.4375 -3.39835,-0.59471 -4.51241,-1.64015 -6.5,-4.4375 -0.45319,-3.17235 -0.5299,-5.06488 1.0625,-7.875 3.04443,-1.76773 5.5006,-1.49324 8.9375,-1.125 z"
     fill="#0c1a26"
     id="path18" />
  <path
     d="M 582.4375,458.6875 C 585,459 585,459 586.875,460.125 588,462 588,462 587.75,465.125 587,468 587,468 586,469 c -2.9375,0.1875 -2.9375,0.1875 -6,0 -2,-2 -2,-2 -2.25,-5 0.31075,-3.72896 0.9054,-4.82761 4.6875,-5.3125 z"
     fill="#f2f5f5"
     id="path19" />
  <path
     d="m 493,574 c 0,3.28177 -0.47836,5.10888 -2,8 -0.59812,0.11988 -1.19625,0.23977 -1.8125,0.36328 -3.11983,0.90809 -4.36286,2.74423 -6.4375,5.19922 -0.70641,0.82629 -1.41281,1.65258 -2.14063,2.50391 -0.53109,0.63808 -1.06218,1.27617 -1.60937,1.93359 -0.66,-0.33 -1.32,-0.66 -2,-1 4.69732,-6.52489 9.8228,-11.85933 16,-17 z"
     fill="#1a2732"
     id="path20" />
  <path
     d="m 459,349 c 0.66,0.33 1.32,0.66 2,1 0.3125,2.1875 0.3125,2.1875 0,5 -2.17547,2.51896 -4.0102,4.5051 -7,6 1.31062,-4.2343 2.94356,-8.07407 5,-12 z"
     fill="#212f39"
     id="path21" />
  <path
     d="m 273,229 c 0.66,0.33 1.32,0.66 2,1 -3.3,3.3 -6.6,6.6 -10,10 -0.66,-0.99 -1.32,-1.98 -2,-3 3.3,-2.64 6.6,-5.28 10,-8 z"
     fill="#0e1c29"
     id="path22" />
  <path
     d="m 714,607 c 0.66,0.66 1.32,1.32 2,2 -1.12412,1.29243 -2.24933,2.58392 -3.375,3.875 -0.62648,0.7193 -1.25297,1.43859 -1.89844,2.17969 -1.20083,1.35297 -2.44739,2.66614 -3.72656,3.94531 0,-4.58234 0.51808,-5.05508 3.5,-8.25 0.64969,-0.70641 1.29938,-1.41281 1.96875,-2.14063 C 713.22672,607.81273 713.22672,607.81273 714,607 Z"
     fill="#15222e"
     id="path23" />
  <path
     d="m 549,462 c 0.33,0.66 0.66,1.32 1,2 2.81598,0.46899 2.81598,0.46899 6.0625,0.625 1.65709,0.11215 1.65709,0.11215 3.34766,0.22656 0.85465,0.049 1.70929,0.098 2.58984,0.14844 0,0.33 0,0.66 0,1 -5.94,0 -11.88,0 -18,0 3,-3 3,-3 5,-4 z"
     fill="#1d2a33"
     id="path24" />
  <path
     d="m 210,592 c 0,0.99 0,1.98 0,3 -0.33,0.33 -0.66,0.66 -1,1 0.99,0.66 1.98,1.32 3,2 -3.3,0 -6.6,0 -10,0 2.61514,-2.12039 5.19638,-4.13092 8,-6 z"
     fill="#313b48"
     id="path25" />
  <path
     d="m 611,317 c 0.33,0 0.66,0 1,0 -0.33,2.97 -0.66,5.94 -1,9 -1.32,-1.32 -2.64,-2.64 -4,-4 1.30746,-1.68704 2.64172,-3.3536 4,-5 z"
     fill="#283238"
     id="path26" />
  <path
     d="m 614,730 c 3.875,4.75 3.875,4.75 5,7 -3.45925,-1.24917 -6.14693,-2.67528 -9,-5 1.32,-0.66 2.64,-1.32 4,-2 z"
     fill="#23313d"
     id="path27" />
  <path
     d="m 493,574 c 0,3.20395 -0.74335,5.094 -2,8 -1.65,-0.33 -3.3,-0.66 -5,-1 2.33333,-2.33333 4.66667,-4.66667 7,-7 z"
     fill="#28313c"
     id="path28" />
  <path
     d="m 586,392 c 3,1 3,1 4.6875,4.0625 0.43313,0.96938 0.86625,1.93875 1.3125,2.9375 -2.91517,-1.07401 -4.7781,-1.7781 -7,-4 0.33,-0.99 0.66,-1.98 1,-3 z"
     fill="#15212b"
     id="path29" />
  <path
     d="m 293,516 c 0.66,0.33 1.32,0.66 2,1 -1.98,2.97 -1.98,2.97 -4,6 -0.99,-0.33 -1.98,-0.66 -3,-1 1.36984,-3.16116 1.98906,-3.99271 5,-6 z"
     fill="#101c28"
     id="path30" />
  <path
     d="m 421,542 c 0.33,1.32 0.66,2.64 1,4 0.66,0.33 1.32,0.66 2,1 -0.99,1.98 -1.98,3.96 -3,6 -0.33,0 -0.66,0 -1,0 0.33,-3.63 0.66,-7.26 1,-11 z"
     fill="#c4ced1"
     id="path31" />
  <path
     d="m 473,507 c -1.98,2.97 -1.98,2.97 -4,6 -0.33,-0.99 -0.66,-1.98 -1,-3 0.33,-0.66 0.66,-1.32 1,-2 -0.66,-0.33 -1.32,-0.66 -2,-1 3,-1 3,-1 6,0 z"
     fill="#293440"
     id="path32" />
  <path
     d="m 641,440 c 0.99,0 1.98,0 3,0 0,2.31 0,4.62 0,7 -0.66,0 -1.32,0 -2,0 -0.33,-2.31 -0.66,-4.62 -1,-7 z"
     fill="#0a1117"
     id="path33" />
  <path
     d="m 566,418 c 0.66,0 1.32,0 2,0 0.66,1.65 1.32,3.3 2,5 -1.65,0 -3.3,0 -5,0 0.33,-1.65 0.66,-3.3 1,-5 z"
     fill="#202d32"
     id="path34" />
  <path
     d="m 608,222 c 0.99,0.33 1.98,0.66 3,1 0,1.32 0,2.64 0,4 -1.32,0 -2.64,0 -4,0 0.33,-1.65 0.66,-3.3 1,-5 z"
     fill="#141c28"
     id="path35" />
</svg>
